# xmcd
#
# Track frame offsets:
#  150
#  13197
#  30167
#  43597
#  56060
#  73490
#  93140
#  108190
#  127020
#  141180
#  157480
#  174430
#
# Disc length: 2491 seconds
#
# Revision: 0
# Processed by: cddbd v1.5.1PL2 Copyright (c) Steve Scherf et al.
# Submitted via: Collectorz.com_Music_Collector 6.11
#
DISCID=a709b90c
DTITLE=Louden Swain - Suit And Tie
DYEAR=2006
DGENRE=
TTITLE0=Suit And Tie
TTITLE1=Operator
TTITLE2=Gina Knows
TTITLE3=Blind
TTITLE4=A Lot To Learn
TTITLE5=Rock Song
TTITLE6=Rockit
TTITLE7=Real Life
TTITLE8=Long Way
TTITLE9=St. Louis
TTITLE10=Walk It Off
TTITLE11=Homesick
EXTD=
EXTT0=
EXTT1=
EXTT2=
EXTT3=
EXTT4=
EXTT5=
EXTT6=
EXTT7=
EXTT8=
EXTT9=
EXTT10=
EXTT11=
PLAYORDER=
